<svg width="66" height="32" viewBox="0 0 66 32" fill="none" xmlns="http://www.w3.org/2000/svg">
<path d="M38.5 13L31.1666 20L27.5 16.5" stroke="#EDEDEF" stroke-width="1.5" stroke-linecap="round" stroke-linejoin="round"/>
<path d="M43 5H23C22.4477 5 22 5.44772 22 6V26C22 26.5523 22.4477 27 23 27H43C43.5523 27 44 26.5523 44 26V6C44 5.44772 43.5523 5 43 5Z" stroke="#EDEDEF" stroke-width="1.5" stroke-linecap="round" stroke-linejoin="round"/>
<path fill-rule="evenodd" clip-rule="evenodd" d="M-1.14441e-05 5L8.94099 16.0625L4.00543e-05 27.125H2.27587L10.5015 16.9475H16.5938V15.1775H10.5015L2.27582 5H-1.14441e-05Z" fill="#EDEDEF"/>
<path fill-rule="evenodd" clip-rule="evenodd" d="M66 5L57.059 16.0625L66 27.125H63.7241L55.4985 16.9475H49.4062V15.1775H55.4985L63.7242 5H66Z" fill="#EDEDEF"/>
</svg>
