<svg width="28" height="22" viewBox="0 0 28 22" fill="none" xmlns="http://www.w3.org/2000/svg">
<path d="M19.6028 3.87061H21.9021L17.1171 8.61699C15.3842 10.3349 12.5747 10.3349 10.8406 8.61699L6.05377 3.87061H8.35492L11.9903 7.47615C12.5199 7.99913 13.2338 8.2923 13.9775 8.2923C14.7211 8.2923 15.435 7.99913 15.9646 7.47615L19.6028 3.87061Z" fill="white"/>
<path d="M8.3255 17.0685H6.02466L10.8407 12.2929C12.5736 10.5749 15.3831 10.5749 17.1172 12.2929L21.9332 17.0685H19.6339L15.9675 13.4337C15.4378 12.9107 14.724 12.6175 13.9803 12.6175C13.2367 12.6175 12.5228 12.9107 11.9932 13.4337L8.3255 17.0685Z" fill="white"/>
<path fill-rule="evenodd" clip-rule="evenodd" d="M1.5556 9.76858L6.30711 9.76858L6.30711 11.3241L1.5556 11.3241L1.5556 21.396L4.06715e-05 21.396L4.05312e-05 -3.17035e-07L1.5556 -2.38842e-07L1.5556 9.76858Z" fill="white"/>
<path fill-rule="evenodd" clip-rule="evenodd" d="M26.4443 9.76858L21.6928 9.76858L21.6928 11.3241L26.4443 11.3241L26.4443 21.396L27.9998 21.396L27.9998 -3.17035e-07L26.4443 -2.38842e-07L26.4443 9.76858Z" fill="white"/>
</svg>
